# xmcd
#
# Track frame offsets: 
#        150
#        14097
#        27784
#        42485
#        59676
#        77949
#        97854
#        119250
#        140265
#        158425
#        172736
#        186781
#        207800
#        223499
#
# Disc length: 3302 seconds
#
# Revision: 3
# Processed by: cddbd v1.5.2PL0 Copyright (c) Steve Scherf et al.
# Submitted via: ExactAudioCopy v0.99pb4
#
DISCID=be0ce40e
DTITLE=Southside Johnny and The Asbury Jukes - Going to Jukesville
DYEAR=2002
DGENRE=Blues
TTITLE0=Passion Street
TTITLE1=Baby Dont Lie
TTITLE2=Leaving Behind
TTITLE3=Gladly Go Blind
TTITLE4=She's Still in Love
TTITLE5=Lost in the Night
TTITLE6=No Easy Way Down
TTITLE7=Somebody to Love You
TTITLE8=I Can't Dance
TTITLE9=Change For You Baby
TTITLE10=Lost
TTITLE11=I Will Be Strong
TTITLE12=I Won't Sing
TTITLE13=Tired Skin
EXTD=
EXTT0=
EXTT1=
EXTT2=
EXTT3=
EXTT4=
EXTT5=
EXTT6=
EXTT7=
EXTT8=
EXTT9=
EXTT10=
EXTT11=
EXTT12=
EXTT13=
PLAYORDER=
